<svg id="Layer_1" data-name="Layer 1" xmlns="http://www.w3.org/2000/svg" viewBox="0 0 953.55 283.75"><defs><style>.cls-1{fill:#fff;stroke:#fff;stroke-miterlimit:10;stroke-width:0.25px;}</style></defs><title>BrownPrivilegeexpanded</title><path class="cls-1" d="M947.18,1143.09a45,45,0,0,1,13.19,5,29.53,29.53,0,0,1,8.2,7.12,23.63,23.63,0,0,1,4.2,8.55,37.8,37.8,0,0,1,1.17,9.39,31.09,31.09,0,0,1-2.44,12.2,25.94,25.94,0,0,1-8,10.2,41.35,41.35,0,0,1-14.46,7q-8.94,2.58-21.93,2.58H862.79a2.27,2.27,0,0,1-1.46-.4,1.32,1.32,0,0,1-.54-.89,1.15,1.15,0,0,1,.39-.94,2.53,2.53,0,0,1,1.32-.62q1.17-.18,3.71-.76a18.17,18.17,0,0,0,5.13-2.09,15.5,15.5,0,0,0,4.54-4.1,10.93,10.93,0,0,0,2-6.77V1101.5a11,11,0,0,0-2-6.72,14.74,14.74,0,0,0-4.54-4.1,20.15,20.15,0,0,0-5.13-2.09q-2.54-.62-3.71-.8a2,2,0,0,1-1.32-.58,1.27,1.27,0,0,1-.39-1,1.32,1.32,0,0,1,.54-.89,2.27,2.27,0,0,1,1.46-.4h68a56.48,56.48,0,0,1,17.14,2.23,30,30,0,0,1,11.13,6.1,21.85,21.85,0,0,1,6.06,9.08,33.6,33.6,0,0,1,1.81,11.09,35.24,35.24,0,0,1-1,8.19,26.81,26.81,0,0,1-3.27,7.84,28.42,28.42,0,0,1-6.15,6.95A38.12,38.12,0,0,1,947,1142q-.59.27-.49.58C946.56,1142.81,946.79,1143,947.18,1143.09Zm-37.11-7.84a5.26,5.26,0,0,0,1.51,4,6,6,0,0,0,4.35,1.47,17.26,17.26,0,0,0,5.62-1.07,13.43,13.43,0,0,0,5.71-4.14,24.56,24.56,0,0,0,4.4-8.64,49.55,49.55,0,0,0,1.76-14.56q0-3.92-.29-7.93a24.89,24.89,0,0,0-1.56-7.26,12.91,12.91,0,0,0-3.71-5.3,10.18,10.18,0,0,0-6.74-2,11.87,11.87,0,0,0-5.71,1.2,7.92,7.92,0,0,0-3.37,3.65,18.69,18.69,0,0,0-1.56,6.06,79.14,79.14,0,0,0-.39,8.41Zm13,64.83a12.79,12.79,0,0,0,6.4-1.47,13.21,13.21,0,0,0,4.3-3.87,19,19,0,0,0,2.64-5.39,35.6,35.6,0,0,0,1.32-6q.39-3,.49-5.79t.1-4.72a47.78,47.78,0,0,0-1.17-11.44,25.76,25.76,0,0,0-3.13-7.7,16.3,16.3,0,0,0-4.35-4.67,18.15,18.15,0,0,0-4.79-2.4,19.13,19.13,0,0,0-4.59-.89q-2.2-.13-3.66-.13a7.23,7.23,0,0,0-4.79,1.47,4.9,4.9,0,0,0-1.76,4v28a64.55,64.55,0,0,0,.54,8.73,19.46,19.46,0,0,0,2,6.63,10.86,10.86,0,0,0,4,4.23A12.36,12.36,0,0,0,923.06,1200.08Z" transform="translate(-751.4 -1082.32)"/><path class="cls-1" d="M1098.27,1193.84a3,3,0,0,1,2.2.13q1,.49.54,2.18a10,10,0,0,1-2.49,4.05,21.72,21.72,0,0,1-4.79,3.69,27.32,27.32,0,0,1-6.59,2.72,30.06,30.06,0,0,1-8,1,42.59,42.59,0,0,1-7.23-.62,27.45,27.45,0,0,1-6.89-2.14,21.91,21.91,0,0,1-5.91-4,20.38,20.38,0,0,1-4.4-6.23,30.26,30.26,0,0,1-2.39-7.35,90.38,90.38,0,0,1-1.32-9.48,81.73,81.73,0,0,0-2.88-16.34,28,28,0,0,0-4.4-9.08,10.83,10.83,0,0,0-5.32-3.87,20.07,20.07,0,0,0-5.47-.8q-3.32,0-4.59,1.16t-1.27,4v35.71a10.91,10.91,0,0,0,2,6.77,15.46,15.46,0,0,0,4.54,4.1,18.13,18.13,0,0,0,5.13,2.09q2.54.58,3.71.76a2.53,2.53,0,0,1,1.32.62,1.16,1.16,0,0,1,.39.94,1.33,1.33,0,0,1-.54.89,2.28,2.28,0,0,1-1.46.4H979.8a2.27,2.27,0,0,1-1.46-.4,1.32,1.32,0,0,1-.54-.89,1.15,1.15,0,0,1,.39-.94,2.53,2.53,0,0,1,1.32-.62q1.17-.18,3.71-.76a18.17,18.17,0,0,0,5.13-2.09,15.5,15.5,0,0,0,4.54-4.1,10.93,10.93,0,0,0,2-6.77V1101.5a11,11,0,0,0-2-6.72,14.74,14.74,0,0,0-4.54-4.1,20.15,20.15,0,0,0-5.13-2.09q-2.54-.62-3.71-.8a2,2,0,0,1-1.32-.58,1.27,1.27,0,0,1-.39-1,1.32,1.32,0,0,1,.54-.89,2.27,2.27,0,0,1,1.46-.4H1040q5.57,0,11,.09a76.41,76.41,0,0,1,10.55.89,48.15,48.15,0,0,1,10,2.67,35.86,35.86,0,0,1,9.33,5.43,24.52,24.52,0,0,1,5.91,7,29.36,29.36,0,0,1,3.22,8.5,28.3,28.3,0,0,1,.39,9.08,25.16,25.16,0,0,1-2.59,8.64,27.93,27.93,0,0,1-9.18,11,42.89,42.89,0,0,1-13.58,5.92c-.52.12-.81.31-.88.58s.13.43.59.49l2.73.62a27.4,27.4,0,0,1,4.4,1.47,24.31,24.31,0,0,1,4.88,2.8,15.75,15.75,0,0,1,4.1,4.45,22.66,22.66,0,0,1,2.88,8.33,83.5,83.5,0,0,1,1,10.64q.39,6.14.83,10.2a18.87,18.87,0,0,0,1.61,6.37,6.63,6.63,0,0,0,2.3,2.81,9,9,0,0,0,3,1.29,10.63,10.63,0,0,0,5.86-.36Zm-69-51.29q2.54,0,5.62-.18a29.54,29.54,0,0,0,6.15-1,22,22,0,0,0,6-2.67,17.1,17.1,0,0,0,5.08-5.16,28.14,28.14,0,0,0,3.52-8.42,50.36,50.36,0,0,0,1.32-12.47,45.32,45.32,0,0,0-1.07-10.73,18.94,18.94,0,0,0-3.08-6.95,11.46,11.46,0,0,0-4.88-3.78,17.31,17.31,0,0,0-6.5-1.16,21.26,21.26,0,0,0-5.86.76,11.54,11.54,0,0,0-4.54,2.45,11.09,11.09,0,0,0-2.93,4.27,17.18,17.18,0,0,0-1,6.32v36.78Q1027.07,1142.55,1029.32,1142.55Z" transform="translate(-751.4 -1082.32)"/><path class="cls-1" d="M1178.75,1082.45a78.44,78.44,0,0,1,18.75,2.18,71.45,71.45,0,0,1,16.46,6.19,63.19,63.19,0,0,1,13.63,9.66,59.75,59.75,0,0,1,19,43.94,56.21,56.21,0,0,1-2.49,16.7,60,60,0,0,1-7,15,65,65,0,0,1-11,12.82,69.48,69.48,0,0,1-14.31,10,75.55,75.55,0,0,1-16.95,6.41,78.27,78.27,0,0,1-19,2.27,75.45,75.45,0,0,1-27.4-4.81,65.85,65.85,0,0,1-21.44-13.18,60,60,0,0,1-14-19.63,58.81,58.81,0,0,1-5-24.26,56.22,56.22,0,0,1,2.49-16.7,60.78,60.78,0,0,1,7-15.09,64.5,64.5,0,0,1,11-12.87,69.48,69.48,0,0,1,14.31-10,75.47,75.47,0,0,1,16.95-6.41A78.27,78.27,0,0,1,1178.75,1082.45Zm-1.46,119.94a22.53,22.53,0,0,0,14-4.5,34.76,34.76,0,0,0,9.91-12.29,67.7,67.7,0,0,0,5.91-18.21,128.58,128.58,0,0,0,0-44.66,67.7,67.7,0,0,0-5.91-18.25,34.78,34.78,0,0,0-9.91-12.29,23.94,23.94,0,0,0-27.93,0,34.77,34.77,0,0,0-9.91,12.29,67.66,67.66,0,0,0-5.91,18.25,128.58,128.58,0,0,0,0,44.66,67.67,67.67,0,0,0,5.91,18.21,34.75,34.75,0,0,0,9.91,12.29A22.53,22.53,0,0,0,1177.29,1202.39Z" transform="translate(-751.4 -1082.32)"/><path class="cls-1" d="M1424.88,1085a1.74,1.74,0,0,1,1.12.36,1.44,1.44,0,0,1,.54.85,1.13,1.13,0,0,1-.24.94,1.88,1.88,0,0,1-1.12.62,31.5,31.5,0,0,0-9.33,3.83,18.18,18.18,0,0,0-6.69,7.92q-1.37,2.85-3.66,8.19l-5.27,12.29q-3,6.95-6.35,15t-6.88,16.52q-3.52,8.41-6.93,16.7t-6.4,15.58q-3,7.3-5.42,13.22l-3.91,9.48a1.88,1.88,0,0,1-1.51,1.2q-1,.13-1.51-1.11-.78-2.14-2.39-6.23l-3.71-9.44-4.49-11.44q-2.39-6.1-4.74-12.15t-4.59-11.71q-2.25-5.65-4-10t-2.83-7.12q-1.12-2.76-1.22-3-.39-.71-1-.62a1.39,1.39,0,0,0-1,.89q-2.83,6.68-5.71,13.67L1320,1163.3q-2.83,6.86-5.52,13.4l-5,12.15q-2.3,5.61-4.2,10.2t-3.08,7.52a1.88,1.88,0,0,1-1.51,1.2q-1,.13-1.51-1.11l-3.37-8.73q-2.1-5.43-4.79-12.33t-5.76-14.74L1279,1155q-3.18-8.06-6.3-15.85t-5.91-14.56q-2.78-6.77-5.08-12.07t-3.86-8.33a36.2,36.2,0,0,0-8.25-11.31,20.8,20.8,0,0,0-10.11-4.9,1.33,1.33,0,0,1-1.07-.58,1.44,1.44,0,0,1-.2-1,1.57,1.57,0,0,1,.59-.94,2.1,2.1,0,0,1,1.37-.4h123.45a1.73,1.73,0,0,1,1.12.36,1.71,1.71,0,0,1,.59.85,1,1,0,0,1-.2.94,2.45,2.45,0,0,1-1.32.71l-2,.53a22.05,22.05,0,0,0-2.88,1,20.12,20.12,0,0,0-3.13,1.69,8.72,8.72,0,0,0-2.59,2.63,9.73,9.73,0,0,0-1.37,3.78,11.71,11.71,0,0,0,.54,5.12q1,3.47,2.78,8.33t4,10.37q2.15,5.52,4.44,11.26t4.44,10.91q2.15,5.17,3.91,9.35t2.74,6.59c.26.53.6.79,1,.76a1.06,1.06,0,0,0,.93-.76q1-2.49,2.78-7t4-10.15l4.64-11.84q2.44-6.23,4.69-12.11t4.05-11q1.81-5.08,2.88-8.37a6.86,6.86,0,0,0-.1-5.25,8.15,8.15,0,0,0-3.08-3.25,14.77,14.77,0,0,0-4.35-1.74l-3.81-.89a1.66,1.66,0,0,1-1.17-.67,1.34,1.34,0,0,1-.2-1,1.43,1.43,0,0,1,.54-.85,1.89,1.89,0,0,1,1.22-.36Zm-110.37,74.44q.59-1.51,1.71-4.27t2.49-6.23q1.37-3.47,2.83-7.26t2.64-7.26q1.17-3.47,1.9-6.28a18.64,18.64,0,0,0,.73-4.41,19.51,19.51,0,0,0-.78-5.21,48.88,48.88,0,0,0-1.9-5.52q-1.12-2.72-2.3-5t-1.86-3.83a37.94,37.94,0,0,0-3.76-6.19,20.18,20.18,0,0,0-4.49-4.36,17.25,17.25,0,0,0-5.57-2.54,27.78,27.78,0,0,0-7-.8,14.08,14.08,0,0,0-4.1.62,7.35,7.35,0,0,0-5.32,5.88,11.6,11.6,0,0,0,.54,5.88q1,3.47,2.73,8.33t3.91,10.37q2.15,5.52,4.49,11.26t4.49,10.91q2.15,5.17,3.91,9.35t2.73,6.59c.26.53.6.79,1,.76A1.06,1.06,0,0,0,1314.52,1159.47Z" transform="translate(-751.4 -1082.32)"/><path class="cls-1" d="M1553.71,1085.34a1.33,1.33,0,0,1,.54.89,1.27,1.27,0,0,1-.39,1,2,2,0,0,1-1.32.58q-1.17.18-3.71.8a20.11,20.11,0,0,0-5.13,2.09,14.71,14.71,0,0,0-4.54,4.1,11,11,0,0,0-2,6.72v102.58a1.82,1.82,0,0,1-1.12,1.83,2.17,2.17,0,0,1-2.39-.67q-.29-.27-2.88-3.07l-6.89-7.44L1514,1184q-5.67-6.1-12-12.91t-12.94-14l-12.89-14-11.82-12.87-9.77-10.6-6.69-7.21q-2.49-2.67-2.59-2.76-.69-.62-1.17-.4t-.49,1v78.36a10.91,10.91,0,0,0,2,6.77,15.47,15.47,0,0,0,4.54,4.1,18.14,18.14,0,0,0,5.13,2.09q2.54.58,3.71.76a2.53,2.53,0,0,1,1.32.62,1.15,1.15,0,0,1,.39.94,1.33,1.33,0,0,1-.54.89,2.28,2.28,0,0,1-1.47.4h-37.11a2.27,2.27,0,0,1-1.46-.4,1.32,1.32,0,0,1-.54-.89,1.15,1.15,0,0,1,.39-.94,2.53,2.53,0,0,1,1.32-.62q1.17-.18,3.71-.76a18.18,18.18,0,0,0,5.13-2.09,15.51,15.51,0,0,0,4.54-4.1,10.93,10.93,0,0,0,2-6.77V1101.5a11,11,0,0,0-2-6.72,14.74,14.74,0,0,0-4.54-4.1,20.17,20.17,0,0,0-5.13-2.09q-2.54-.62-3.71-.8a2,2,0,0,1-1.32-.58,1.27,1.27,0,0,1-.39-1,1.33,1.33,0,0,1,.54-.89,2.27,2.27,0,0,1,1.46-.4h38.78a6.25,6.25,0,0,1,4.79,1.87q1.85,2,5.57,6.06l8.45,9.13q4.74,5.12,10.16,11t10.84,11.75l10.45,11.26,8.94,9.66,6.3,6.81q2.39,2.58,2.59,2.76.78.71,1.27.53t.49-1.07V1101.5a11,11,0,0,0-2-6.72,14.75,14.75,0,0,0-4.54-4.1,20.15,20.15,0,0,0-5.13-2.09q-2.54-.62-3.71-.8a2,2,0,0,1-1.32-.58,1.27,1.27,0,0,1-.39-1,1.33,1.33,0,0,1,.54-.89,2.27,2.27,0,0,1,1.46-.4h37.11A2.27,2.27,0,0,1,1553.71,1085.34Z" transform="translate(-751.4 -1082.32)"/><path class="cls-1" d="M863.31,1260.42a34.54,34.54,0,0,1,3,8.64,39.07,39.07,0,0,1,.83,9.31,41.38,41.38,0,0,1-1.32,9.17,32,32,0,0,1-3.52,8.42,25.71,25.71,0,0,1-6.74,7.44,41.84,41.84,0,0,1-9.28,5.25,51.33,51.33,0,0,1-10.55,3.07,59.31,59.31,0,0,1-10.45,1q-2.44,0-5.27-.09t-5.81-.45q-3-.36-6.06-1a33.35,33.35,0,0,1-6-1.91c-.59-.24-1-.25-1.12,0a1,1,0,0,0-.24.58v37a10.92,10.92,0,0,0,2,6.77,15.45,15.45,0,0,0,4.54,4.1,18.11,18.11,0,0,0,5.13,2.09q2.54.58,3.71.76a2.53,2.53,0,0,1,1.32.62,1.16,1.16,0,0,1,.39.94,1.33,1.33,0,0,1-.54.89,2.28,2.28,0,0,1-1.46.4H753.53a2.27,2.27,0,0,1-1.46-.4,1.32,1.32,0,0,1-.54-.89,1.15,1.15,0,0,1,.39-.94,2.53,2.53,0,0,1,1.32-.62q1.17-.18,3.71-.76a18.14,18.14,0,0,0,5.13-2.09,15.49,15.49,0,0,0,4.54-4.1,10.93,10.93,0,0,0,2-6.77v-87.09a11,11,0,0,0-2-6.72,14.74,14.74,0,0,0-4.54-4.1,20.15,20.15,0,0,0-5.13-2.09q-2.54-.62-3.71-.8a2,2,0,0,1-1.32-.58,1.27,1.27,0,0,1-.39-1,1.32,1.32,0,0,1,.54-.89,2.27,2.27,0,0,1,1.46-.4H817q5.57,0,11,.09a68.24,68.24,0,0,1,10.55,1,45.37,45.37,0,0,1,10,2.94,36.22,36.22,0,0,1,9.33,5.88,22.72,22.72,0,0,1,3.08,3.47A28.39,28.39,0,0,1,863.31,1260.42Zm-50.89,45.32a20,20,0,0,0,9.38-2,16.62,16.62,0,0,0,6.25-5.74,25.76,25.76,0,0,0,3.52-9,60.07,60.07,0,0,0,1.07-11.89q0-5.61-.44-10.77a28.76,28.76,0,0,0-2.15-9.08,14.52,14.52,0,0,0-5.13-6.28q-3.42-2.36-9.38-2.36a16.77,16.77,0,0,0-7.33,1.38,11.71,11.71,0,0,0-4.49,3.7,14,14,0,0,0-2.3,5.3,29.58,29.58,0,0,0-.63,6.19v29.38q0,5.88,3.17,8.55A12.68,12.68,0,0,0,812.43,1305.75Z" transform="translate(-751.4 -1082.32)"/><path class="cls-1" d="M986,1352.05a3,3,0,0,1,2.2.13q1,.49.54,2.18a9.94,9.94,0,0,1-2.49,4.05,21.7,21.7,0,0,1-4.79,3.7,27.32,27.32,0,0,1-6.59,2.72,30.06,30.06,0,0,1-8,1,42.59,42.59,0,0,1-7.23-.62,27.45,27.45,0,0,1-6.89-2.14,21.91,21.91,0,0,1-5.91-4,20.37,20.37,0,0,1-4.4-6.23,30.25,30.25,0,0,1-2.39-7.35,90.38,90.38,0,0,1-1.32-9.48,81.73,81.73,0,0,0-2.88-16.34,28,28,0,0,0-4.4-9.08,10.84,10.84,0,0,0-5.32-3.87,20.07,20.07,0,0,0-5.47-.8q-3.32,0-4.59,1.16t-1.27,4v35.71a10.92,10.92,0,0,0,2,6.77,15.45,15.45,0,0,0,4.54,4.1,18.11,18.11,0,0,0,5.13,2.09q2.54.58,3.71.76a2.53,2.53,0,0,1,1.32.62,1.16,1.16,0,0,1,.39.94,1.33,1.33,0,0,1-.54.89,2.28,2.28,0,0,1-1.46.4H867.51a2.27,2.27,0,0,1-1.46-.4,1.32,1.32,0,0,1-.54-.89,1.15,1.15,0,0,1,.39-.94,2.53,2.53,0,0,1,1.32-.62q1.17-.18,3.71-.76a18.14,18.14,0,0,0,5.13-2.09,15.49,15.49,0,0,0,4.54-4.1,10.93,10.93,0,0,0,2-6.77v-87.09a11,11,0,0,0-2-6.72,14.74,14.74,0,0,0-4.54-4.1,20.15,20.15,0,0,0-5.13-2.09q-2.54-.62-3.71-.8a2,2,0,0,1-1.32-.58,1.27,1.27,0,0,1-.39-1,1.32,1.32,0,0,1,.54-.89,2.27,2.27,0,0,1,1.46-.4h60.16q5.57,0,11,.09a76.26,76.26,0,0,1,10.55.89,48.18,48.18,0,0,1,10,2.67,35.9,35.9,0,0,1,9.33,5.43,24.53,24.53,0,0,1,5.91,7,29.36,29.36,0,0,1,3.22,8.5,28.31,28.31,0,0,1,.39,9.08,25.17,25.17,0,0,1-2.59,8.64,27.93,27.93,0,0,1-9.18,11,42.88,42.88,0,0,1-13.58,5.92q-.78.18-.88.58t.59.49l2.73.62a27.4,27.4,0,0,1,4.4,1.47,24.3,24.3,0,0,1,4.88,2.81,15.73,15.73,0,0,1,4.1,4.45,22.67,22.67,0,0,1,2.88,8.33,83.49,83.49,0,0,1,1,10.64q.39,6.14.83,10.2a18.87,18.87,0,0,0,1.61,6.37,6.62,6.62,0,0,0,2.3,2.8,9,9,0,0,0,3,1.29,10.64,10.64,0,0,0,5.86-.36Zm-69-51.29q2.54,0,5.62-.18a29.48,29.48,0,0,0,6.15-1,22,22,0,0,0,6-2.67,17.11,17.11,0,0,0,5.08-5.17,28.15,28.15,0,0,0,3.52-8.42,50.36,50.36,0,0,0,1.32-12.47,45.32,45.32,0,0,0-1.07-10.73,18.93,18.93,0,0,0-3.08-6.95,11.46,11.46,0,0,0-4.88-3.79,17.32,17.32,0,0,0-6.5-1.16,21.24,21.24,0,0,0-5.86.76,11.53,11.53,0,0,0-4.54,2.45,11.08,11.08,0,0,0-2.93,4.27,17.18,17.18,0,0,0-1,6.32v36.78Q914.78,1300.76,917,1300.76Z" transform="translate(-751.4 -1082.32)"/><path class="cls-1" d="M1058.36,1360.51a2.53,2.53,0,0,1,1.32.62,1.16,1.16,0,0,1,.39.94,1.33,1.33,0,0,1-.54.89,2.28,2.28,0,0,1-1.46.4H995.75a2.27,2.27,0,0,1-1.46-.4,1.32,1.32,0,0,1-.54-.89,1.15,1.15,0,0,1,.39-.94,2.53,2.53,0,0,1,1.32-.62q1.17-.18,3.71-.76a18.14,18.14,0,0,0,5.13-2.09,15.49,15.49,0,0,0,4.54-4.1,10.93,10.93,0,0,0,2-6.77v-87.09a11,11,0,0,0-2-6.72,14.74,14.74,0,0,0-4.54-4.1,20.15,20.15,0,0,0-5.13-2.09q-2.54-.62-3.71-.8a2,2,0,0,1-1.32-.58,1.27,1.27,0,0,1-.39-1,1.32,1.32,0,0,1,.54-.89,2.27,2.27,0,0,1,1.46-.4h62.31a2.27,2.27,0,0,1,1.46.4,1.33,1.33,0,0,1,.54.89,1.28,1.28,0,0,1-.39,1,2,2,0,0,1-1.32.58q-1.17.18-3.71.8a20.11,20.11,0,0,0-5.13,2.09,14.7,14.7,0,0,0-4.54,4.1,11,11,0,0,0-2,6.72v87.09a10.92,10.92,0,0,0,2,6.77,15.45,15.45,0,0,0,4.54,4.1,18.11,18.11,0,0,0,5.13,2.09Q1057.18,1360.33,1058.36,1360.51Z" transform="translate(-751.4 -1082.32)"/><path class="cls-1" d="M1155.34,1257.13a6.74,6.74,0,0,0-.1-5.21,8.22,8.22,0,0,0-3.08-3.21,15.73,15.73,0,0,0-4.35-1.78L1144,1246a1.66,1.66,0,0,1-1.17-.67,1.35,1.35,0,0,1-.2-1,1.44,1.44,0,0,1,.54-.85,1.89,1.89,0,0,1,1.22-.36h36.14a1.74,1.74,0,0,1,1.12.36,1.45,1.45,0,0,1,.54.85,1.13,1.13,0,0,1-.24.93,1.88,1.88,0,0,1-1.12.62,31.5,31.5,0,0,0-9.33,3.83,18.18,18.18,0,0,0-6.69,7.92q-1.37,2.85-3.66,8.19l-5.27,12.29q-3,6.94-6.35,15l-6.89,16.56q-3.52,8.46-6.93,16.74t-6.4,15.58q-3,7.3-5.42,13.22l-3.91,9.48a1.78,1.78,0,0,1-1.51,1.16,1.45,1.45,0,0,1-1.51-1.07l-3.37-8.73q-2.1-5.43-4.79-12.33t-5.76-14.74l-6.25-15.89q-3.17-8.06-6.3-15.85t-5.91-14.56q-2.78-6.77-5.08-12.11t-3.86-8.37a37,37,0,0,0-8.25-11.26,20.62,20.62,0,0,0-10.11-4.94,1.33,1.33,0,0,1-1.07-.58,1.44,1.44,0,0,1-.2-1,1.57,1.57,0,0,1,.59-.93,2.1,2.1,0,0,1,1.37-.4h61.34a1.73,1.73,0,0,1,1.12.36,1.72,1.72,0,0,1,.59.85,1,1,0,0,1-.2.93,2.45,2.45,0,0,1-1.32.71l-2,.54a22,22,0,0,0-2.88,1,20.22,20.22,0,0,0-3.12,1.69,8.7,8.7,0,0,0-2.59,2.63,9.73,9.73,0,0,0-1.37,3.78,11.72,11.72,0,0,0,.54,5.12q1,3.47,2.78,8.33t4,10.37q2.15,5.52,4.44,11.26t4.44,10.91q2.15,5.17,3.91,9.35t2.73,6.59q.39.8,1,.76a1.06,1.06,0,0,0,.93-.76q1-2.49,2.78-7t4-10.15l4.64-11.84q2.44-6.23,4.69-12.11t4.05-11Q1154.27,1260.42,1155.34,1257.13Z" transform="translate(-751.4 -1082.32)"/><path class="cls-1" d="M1241.19,1360.51a2.53,2.53,0,0,1,1.32.62,1.16,1.16,0,0,1,.39.94,1.33,1.33,0,0,1-.54.89,2.28,2.28,0,0,1-1.46.4h-62.31a2.27,2.27,0,0,1-1.46-.4,1.32,1.32,0,0,1-.54-.89,1.15,1.15,0,0,1,.39-.94,2.53,2.53,0,0,1,1.32-.62q1.17-.18,3.71-.76a18.14,18.14,0,0,0,5.13-2.09,15.49,15.49,0,0,0,4.54-4.1,10.93,10.93,0,0,0,2-6.77v-87.09a11,11,0,0,0-2-6.72,14.74,14.74,0,0,0-4.54-4.1,20.15,20.15,0,0,0-5.13-2.09q-2.54-.62-3.71-.8a2,2,0,0,1-1.32-.58,1.27,1.27,0,0,1-.39-1,1.32,1.32,0,0,1,.54-.89,2.27,2.27,0,0,1,1.46-.4h62.31a2.27,2.27,0,0,1,1.46.4,1.33,1.33,0,0,1,.54.89,1.28,1.28,0,0,1-.39,1,2,2,0,0,1-1.32.58q-1.17.18-3.71.8a20.11,20.11,0,0,0-5.13,2.09,14.7,14.7,0,0,0-4.54,4.1,11,11,0,0,0-2,6.72v87.09a10.92,10.92,0,0,0,2,6.77,15.45,15.45,0,0,0,4.54,4.1,18.11,18.11,0,0,0,5.13,2.09Q1240,1360.33,1241.19,1360.51Z" transform="translate(-751.4 -1082.32)"/><path class="cls-1" d="M1347.55,1335.31a1.73,1.73,0,0,1,1.86-1.29q1.27.13,1.27,1.56v26.09q0,1.69-2.05,1.69h-99.82a2.27,2.27,0,0,1-1.46-.4,1.32,1.32,0,0,1-.54-.89,1.15,1.15,0,0,1,.39-.94,2.53,2.53,0,0,1,1.32-.62q1.17-.18,3.71-.76a18.14,18.14,0,0,0,5.13-2.09,15.49,15.49,0,0,0,4.54-4.1,10.93,10.93,0,0,0,2-6.77v-87.09a11,11,0,0,0-2-6.72,14.74,14.74,0,0,0-4.54-4.1,20.15,20.15,0,0,0-5.13-2.09q-2.54-.62-3.71-.8a2,2,0,0,1-1.32-.58,1.27,1.27,0,0,1-.39-1,1.32,1.32,0,0,1,.54-.89,2.27,2.27,0,0,1,1.46-.4h62.31a2.27,2.27,0,0,1,1.46.4,1.33,1.33,0,0,1,.54.89,1.28,1.28,0,0,1-.39,1,2,2,0,0,1-1.32.58q-1.17.18-3.71.8a20.11,20.11,0,0,0-5.13,2.09,14.7,14.7,0,0,0-4.54,4.1,11,11,0,0,0-2,6.72v91.81a7.8,7.8,0,0,0,.63,3.43,4.14,4.14,0,0,0,2.44,2,18.92,18.92,0,0,0,5.08.89q3.27.22,8.55.22a39.56,39.56,0,0,0,11.28-1.47,38.67,38.67,0,0,0,8.69-3.7,29.65,29.65,0,0,0,6.4-5,46.38,46.38,0,0,0,4.4-5.25,29.67,29.67,0,0,0,2.69-4.5Q1347.16,1336.11,1347.55,1335.31Z" transform="translate(-751.4 -1082.32)"/><path class="cls-1" d="M1457.53,1337.71a1.73,1.73,0,0,1,1.86-1.29q1.27.13,1.27,1.56v23.69q0,1.69-2.05,1.69H1354.88a2.27,2.27,0,0,1-1.46-.4,1.32,1.32,0,0,1-.54-.89,1.15,1.15,0,0,1,.39-.94,2.53,2.53,0,0,1,1.32-.62q1.17-.18,3.71-.76a18.16,18.16,0,0,0,5.13-2.09,15.49,15.49,0,0,0,4.54-4.1,10.93,10.93,0,0,0,2-6.77v-87.09a11,11,0,0,0-2-6.72,14.74,14.74,0,0,0-4.54-4.1,20.17,20.17,0,0,0-5.13-2.09q-2.54-.62-3.71-.8a2,2,0,0,1-1.32-.58,1.27,1.27,0,0,1-.39-1,1.32,1.32,0,0,1,.54-.89,2.27,2.27,0,0,1,1.46-.4h95.23q2.05,0,2.05,1.69v18.52q0,1.34-1.17,1.47a2,2,0,0,1-2-1.11,36.76,36.76,0,0,0-2.34-3.7,27.1,27.1,0,0,0-4.88-5.17,31,31,0,0,0-7.81-4.63,28.49,28.49,0,0,0-11.23-2,45.91,45.91,0,0,0-8.4.71,20.38,20.38,0,0,0-6.5,2.27,11.76,11.76,0,0,0-4.2,4,11,11,0,0,0-1.51,5.92v36.24a1.23,1.23,0,0,0,.44.94,1.48,1.48,0,0,0,1,.4h12.5a13.66,13.66,0,0,0,11.57-5.34,14.62,14.62,0,0,0,2.3-4.23,27.13,27.13,0,0,0,.88-3.16,1.31,1.31,0,0,1,.63-1,1.82,1.82,0,0,1,1.07-.27,1.63,1.63,0,0,1,1,.44,1.43,1.43,0,0,1,.44,1.11v30.28a1.43,1.43,0,0,1-.44,1.11,1.62,1.62,0,0,1-1,.45,1.8,1.8,0,0,1-1.07-.27,1.31,1.31,0,0,1-.63-1,27.18,27.18,0,0,0-.88-3.16,14.65,14.65,0,0,0-2.3-4.23,13.66,13.66,0,0,0-11.57-5.34h-12.5a1.48,1.48,0,0,0-1,.4,1.23,1.23,0,0,0-.44.94v39.71q0,6.32,6.06,9.62t17.19,3.29a33.68,33.68,0,0,0,9.62-1.29,37.65,37.65,0,0,0,7.81-3.25,30.79,30.79,0,0,0,6.05-4.41,49.5,49.5,0,0,0,4.4-4.67,29.55,29.55,0,0,0,2.83-4.05Q1457.14,1338.52,1457.53,1337.71Z" transform="translate(-751.4 -1082.32)"/><path class="cls-1" d="M1465.63,1304a55.18,55.18,0,0,1,2.54-16.7,59.11,59.11,0,0,1,7.23-15.09,66.14,66.14,0,0,1,11.28-12.87,71.5,71.5,0,0,1,14.6-10,77.67,77.67,0,0,1,17.29-6.41,81.06,81.06,0,0,1,19.34-2.27,86.08,86.08,0,0,1,15,1.2,104.83,104.83,0,0,1,11.62,2.67,63.49,63.49,0,0,1,7.72,2.76,24.22,24.22,0,0,1,3.13,1.56,2.27,2.27,0,0,1,1.17,1.87v18.7a1.26,1.26,0,0,1-.39,1,1.76,1.76,0,0,1-.88.45,1.44,1.44,0,0,1-1-.18,2,2,0,0,1-.78-.8,70.29,70.29,0,0,0-4.59-8.28,33.46,33.46,0,0,0-6.93-7.75,35.66,35.66,0,0,0-10-5.7,37.62,37.62,0,0,0-13.58-2.23,28.3,28.3,0,0,0-16.16,4.5,34.19,34.19,0,0,0-10.94,12.29,61.52,61.52,0,0,0-6.2,18.25,128.6,128.6,0,0,0,0,44.66,67.61,67.61,0,0,0,5.91,18.21,34.73,34.73,0,0,0,9.91,12.29,22.53,22.53,0,0,0,14,4.5q7.52,0,11.77-2.94a18.13,18.13,0,0,0,6.35-7.61,31.8,31.8,0,0,0,2.59-10.37q.49-5.7.49-11.22v-7a10.63,10.63,0,0,0-2-6.59,16.14,16.14,0,0,0-4.54-4.14,18.58,18.58,0,0,0-5.13-2.18q-2.54-.62-3.71-.8a2,2,0,0,1-1.32-.58,1.27,1.27,0,0,1-.39-1,1.32,1.32,0,0,1,.54-.89,2.27,2.27,0,0,1,1.46-.4h44.15a3.28,3.28,0,0,1,2.29.76,2.58,2.58,0,0,1,.83,2v45.33a2.94,2.94,0,0,1-.59,2,3.91,3.91,0,0,1-1.66,1q-7.52,2-13.72,3.83t-12.21,3.12q-6,1.34-12.4,2.14a115.69,115.69,0,0,1-14.31.8,75.45,75.45,0,0,1-27.4-4.81,65.84,65.84,0,0,1-21.44-13.18,59.94,59.94,0,0,1-14-19.63A58.8,58.8,0,0,1,1465.63,1304Z" transform="translate(-751.4 -1082.32)"/><path class="cls-1" d="M1701.7,1337.71a1.73,1.73,0,0,1,1.86-1.29q1.27.13,1.27,1.56v23.69q0,1.69-2.05,1.69H1599a2.27,2.27,0,0,1-1.47-.4,1.32,1.32,0,0,1-.54-.89,1.15,1.15,0,0,1,.39-.94,2.52,2.52,0,0,1,1.32-.62q1.17-.18,3.71-.76a18.16,18.16,0,0,0,5.13-2.09,15.49,15.49,0,0,0,4.54-4.1,10.93,10.93,0,0,0,2-6.77v-87.09a11,11,0,0,0-2-6.72,14.74,14.74,0,0,0-4.54-4.1,20.17,20.17,0,0,0-5.13-2.09q-2.54-.62-3.71-.8a2,2,0,0,1-1.32-.58,1.27,1.27,0,0,1-.39-1,1.32,1.32,0,0,1,.54-.89,2.27,2.27,0,0,1,1.47-.4h95.23q2.05,0,2.05,1.69v18.52q0,1.34-1.17,1.47a2,2,0,0,1-2-1.11,36.76,36.76,0,0,0-2.34-3.7,27.1,27.1,0,0,0-4.88-5.17,31,31,0,0,0-7.81-4.63,28.49,28.49,0,0,0-11.23-2,45.91,45.91,0,0,0-8.4.71,20.38,20.38,0,0,0-6.5,2.27,11.76,11.76,0,0,0-4.2,4,11,11,0,0,0-1.51,5.92v36.24a1.23,1.23,0,0,0,.44.94,1.48,1.48,0,0,0,1,.4h12.5a13.66,13.66,0,0,0,11.57-5.34,14.62,14.62,0,0,0,2.3-4.23,27.13,27.13,0,0,0,.88-3.16,1.31,1.31,0,0,1,.63-1,1.82,1.82,0,0,1,1.07-.27,1.63,1.63,0,0,1,1,.44,1.43,1.43,0,0,1,.44,1.11v30.28a1.43,1.43,0,0,1-.44,1.11,1.62,1.62,0,0,1-1,.45,1.8,1.8,0,0,1-1.07-.27,1.31,1.31,0,0,1-.63-1,27.18,27.18,0,0,0-.88-3.16,14.65,14.65,0,0,0-2.3-4.23,13.66,13.66,0,0,0-11.57-5.34h-12.5a1.48,1.48,0,0,0-1,.4,1.23,1.23,0,0,0-.44.94v39.71q0,6.32,6.06,9.62t17.19,3.29a33.68,33.68,0,0,0,9.62-1.29,37.65,37.65,0,0,0,7.81-3.25,30.79,30.79,0,0,0,6.05-4.41,49.5,49.5,0,0,0,4.4-4.67,29.55,29.55,0,0,0,2.83-4.05Q1701.31,1338.52,1701.7,1337.71Z" transform="translate(-751.4 -1082.32)"/></svg>